<svg xmlns="http://www.w3.org/2000/svg" width="385" height="64" fill="none" viewBox="0 0 385 64">
  <path fill="#fff" fill-rule="evenodd" d="M47.582.172c-.525.188-1.077.727-1.23 1.2-.264.828-.377.852-1.977.427-2.045-.544-3.907-.254-8.96 1.396-1.67.545-3.485 1.093-4.033 1.217-1.427.322-1.501.35-1.636.621-.25.5.646 2.534 1.554 3.53 1.227 1.345 2.29 1.827 6.211 2.82 5.658 1.433 7.44 2.704 10.22 7.285 1.692 2.79 2.856 3.891 5.521 5.226.968.484 1.04.621.472.896-1.67.81-3.608.54-4.952-.689-.516-.471-.677-.465-.772.032-.367 1.925-2.556 3.649-4.635 3.649-.851 0-.856-.022-.202-.973 4.267-6.209.195-10.22-8.23-8.106l-1.328.333-.072-.83a9.272 9.272 0 0 0-.95-3.39c-.648-1.317-.85-1.325-.626-.026.702 4.08-.498 5.71-3.777 5.129-1.562-.277-3.745-1.296-3.874-1.809-.228-.908 1.559-3.742 2.982-4.728.782-.542.627-.619-1.065-.533C15.545 13.39 8.4 19.294 5.089 30.313 4.57 32.042-.068 51.671.001 51.852c.08.214 8.736.188 8.819-.026.033-.089-.31-.81-.798-1.672-.472-.834-.842-1.584-.823-1.669.019-.084 2.863-2.518 6.32-5.409l6.287-5.256 1.34-2.895c.738-1.591 1.398-2.93 1.467-2.972.387-.24.365.184-.158 2.986-.288 1.545-.491 2.841-.452 2.88.04.04 1.447.145 3.128.233l3.056.16 4.076-.767c2.241-.423 4.11-.73 4.152-.684.042.045.462 3.383.934 7.417.471 4.033.9 7.44.953 7.57l.095.235h4.13c3.363 0 4.139-.026 4.183-.141.03-.078-.295-.735-.722-1.461-.427-.726-.776-1.367-.776-1.423 0-.056 2.105-3.96 4.678-8.675 6.275-11.497 7.114-13.265 8.042-16.954 1.824-7.258.27-12.745-5.14-18.141l-1.908-1.903.058-.773c.135-1.78-1.58-2.974-3.36-2.34Zm-6.386 3.926c1.442.655.967 2.73-.625 2.73-1.52 0-1.944-2.103-.55-2.736.529-.24.634-.24 1.175.006Zm-12.59 10.505c-.797.457-.514 1.66.388 1.651.833-.008 1.2-.887.615-1.472-.321-.321-.652-.38-1.003-.18Zm27.988 17.186c-.705 1.13-6.346 11.68-6.305 11.789.03.078 1.306 2.001 2.836 4.273l2.782 4.132h4.347c3.729 0 4.354-.022 4.405-.154.037-.095-.334-.65-.96-1.44-.706-.892-1.162-1.593-1.487-2.283-2.013-4.275-3.795-9.716-4.735-14.457-.43-2.17-.41-2.096-.584-2.096-.084 0-.218.107-.3.236ZM19.48 40.436c-.526.444-2.329 1.96-4.008 3.366-1.679 1.407-3.052 2.61-3.052 2.672 0 .319.636 5.332.686 5.414.034.054 1.913.095 4.4.095 5.125 0 4.703.22 3.505-1.826a75.128 75.128 0 0 1-.994-1.732c-.152-.295-.112-.41 1.518-4.367 1.938-4.703 1.922-4.283.156-4.369l-1.257-.061-.954.808Z" clip-rule="evenodd"/>
  <path fill="#fff" d="M92.816 52v-4.848l-.624-1.2v-8.928c0-1.44-.448-2.544-1.344-3.312-.864-.8-2.256-1.2-4.176-1.2-1.248 0-2.512.208-3.792.624-1.28.384-2.368.928-3.264 1.632l-3.072-6.192c1.472-.96 3.232-1.696 5.28-2.208a24.393 24.393 0 0 1 6.192-.816c4.224 0 7.488.976 9.792 2.928 2.336 1.92 3.504 4.944 3.504 9.072V52h-8.496Zm-7.68.432c-2.08 0-3.84-.352-5.28-1.056-1.44-.704-2.544-1.664-3.312-2.88-.736-1.216-1.104-2.576-1.104-4.08 0-1.6.4-2.976 1.2-4.128.832-1.184 2.096-2.08 3.792-2.688 1.696-.64 3.888-.96 6.576-.96h6.144v4.752h-4.896c-1.472 0-2.512.24-3.12.72-.576.48-.864 1.12-.864 1.92 0 .8.304 1.44.912 1.92.608.48 1.44.72 2.496.72.992 0 1.888-.24 2.688-.72.832-.512 1.44-1.28 1.824-2.304l1.248 3.36c-.48 1.792-1.424 3.152-2.832 4.08-1.376.896-3.2 1.344-5.472 1.344ZM107.069 52V16.384h9.12V52h-9.12Zm30.935 0v-4.848l-.624-1.2v-8.928c0-1.44-.448-2.544-1.344-3.312-.864-.8-2.256-1.2-4.177-1.2-1.247 0-2.511.208-3.791.624-1.28.384-2.368.928-3.264 1.632l-3.072-6.192c1.472-.96 3.232-1.696 5.28-2.208a24.393 24.393 0 0 1 6.192-.816c4.224 0 7.488.976 9.792 2.928 2.336 1.92 3.504 4.944 3.504 9.072V52h-8.496Zm-7.68.432c-2.08 0-3.84-.352-5.28-1.056-1.44-.704-2.544-1.664-3.312-2.88-.736-1.216-1.104-2.576-1.104-4.08 0-1.6.4-2.976 1.2-4.128.832-1.184 2.096-2.08 3.792-2.688 1.696-.64 3.888-.96 6.576-.96h6.144v4.752h-4.896c-1.472 0-2.512.24-3.12.72-.576.48-.864 1.12-.864 1.92 0 .8.304 1.44.912 1.92.608.48 1.44.72 2.496.72.992 0 1.888-.24 2.688-.72.832-.512 1.44-1.28 1.824-2.304l1.248 3.36c-.48 1.792-1.424 3.152-2.832 4.08-1.376.896-3.2 1.344-5.472 1.344Zm31.388 0c-2.208 0-4.368-.256-6.48-.768-2.08-.512-3.76-1.152-5.04-1.92l2.736-6.24c1.216.736 2.64 1.328 4.272 1.776 1.632.416 3.232.624 4.8.624 1.536 0 2.592-.16 3.168-.48.608-.32.912-.752.912-1.296 0-.512-.288-.88-.864-1.104-.544-.256-1.28-.448-2.208-.576-.896-.128-1.888-.272-2.976-.432a42.835 42.835 0 0 1-3.312-.624 12.038 12.038 0 0 1-3.024-1.248 6.497 6.497 0 0 1-2.16-2.304c-.544-.96-.816-2.176-.816-3.648 0-1.664.48-3.136 1.44-4.416.992-1.312 2.432-2.336 4.32-3.072 1.888-.768 4.192-1.152 6.912-1.152 1.824 0 3.664.192 5.52.576 1.888.352 3.472.896 4.752 1.632l-2.736 6.192c-1.28-.736-2.56-1.232-3.84-1.488-1.28-.288-2.496-.432-3.648-.432-1.536 0-2.624.176-3.264.528-.608.352-.912.784-.912 1.296s.272.912.816 1.2c.544.256 1.264.464 2.16.624.928.128 1.936.272 3.024.432 1.088.128 2.176.336 3.264.624 1.12.288 2.128.72 3.024 1.296a5.98 5.98 0 0 1 2.208 2.256c.544.928.816 2.128.816 3.6 0 1.6-.496 3.04-1.488 4.32-.96 1.28-2.4 2.304-4.32 3.072-1.888.768-4.24 1.152-7.056 1.152ZM186.09 47.2l.24-10.896 10.608-10.32h10.8l-11.76 12.144-4.656 3.744-5.232 5.328Zm-7.584 4.8V16.384h9.12V52h-9.12Zm19.104 0-7.968-9.984 5.664-7.008L208.65 52h-11.04Zm29.222 0v-4.848l-.624-1.2v-8.928c0-1.44-.448-2.544-1.344-3.312-.864-.8-2.256-1.2-4.176-1.2-1.248 0-2.512.208-3.792.624-1.28.384-2.368.928-3.264 1.632l-3.072-6.192c1.472-.96 3.232-1.696 5.28-2.208a24.393 24.393 0 0 1 6.192-.816c4.224 0 7.488.976 9.792 2.928 2.336 1.92 3.504 4.944 3.504 9.072V52h-8.496Zm-7.68.432c-2.08 0-3.84-.352-5.28-1.056-1.44-.704-2.544-1.664-3.312-2.88-.736-1.216-1.104-2.576-1.104-4.08 0-1.6.4-2.976 1.2-4.128.832-1.184 2.096-2.08 3.792-2.688 1.696-.64 3.888-.96 6.576-.96h6.144v4.752h-4.896c-1.472 0-2.512.24-3.12.72-.576.48-.864 1.12-.864 1.92 0 .8.304 1.44.912 1.92.608.48 1.44.72 2.496.72.992 0 1.888-.24 2.688-.72.832-.512 1.44-1.28 1.824-2.304l1.248 3.36c-.48 1.792-1.424 3.152-2.832 4.08-1.376.896-3.2 1.344-5.472 1.344Z"/>
  <path fill="#E2AD37" d="M250.54 52.432c-2.208 0-4.368-.256-6.48-.768-2.08-.512-3.76-1.152-5.04-1.92l2.736-6.24c1.216.736 2.64 1.328 4.272 1.776 1.632.416 3.232.624 4.8.624 1.536 0 2.592-.16 3.168-.48.608-.32.912-.752.912-1.296 0-.512-.288-.88-.864-1.104-.544-.256-1.28-.448-2.208-.576-.896-.128-1.888-.272-2.976-.432a42.835 42.835 0 0 1-3.312-.624 12.038 12.038 0 0 1-3.024-1.248 6.497 6.497 0 0 1-2.16-2.304c-.544-.96-.816-2.176-.816-3.648 0-1.664.48-3.136 1.44-4.416.992-1.312 2.432-2.336 4.32-3.072 1.888-.768 4.192-1.152 6.912-1.152 1.824 0 3.664.192 5.52.576 1.888.352 3.472.896 4.752 1.632l-2.736 6.192c-1.28-.736-2.56-1.232-3.84-1.488-1.28-.288-2.496-.432-3.648-.432-1.536 0-2.624.176-3.264.528-.608.352-.912.784-.912 1.296s.272.912.816 1.2c.544.256 1.264.464 2.16.624.928.128 1.936.272 3.024.432 1.088.128 2.176.336 3.264.624 1.12.288 2.128.72 3.024 1.296a5.98 5.98 0 0 1 2.208 2.256c.544.928.816 2.128.816 3.6 0 1.6-.496 3.04-1.488 4.32-.96 1.28-2.4 2.304-4.32 3.072-1.888.768-4.24 1.152-7.056 1.152Zm28.41 0c-3.328 0-5.92-.816-7.776-2.448-1.856-1.664-2.784-4.16-2.784-7.488v-22.32h9.12V42.4c0 .928.256 1.664.768 2.208.512.512 1.168.768 1.968.768 1.088 0 2.016-.272 2.784-.816l2.256 6.384c-.768.512-1.712.88-2.832 1.104a15.68 15.68 0 0 1-3.504.384ZM264.598 33.76v-6.816h18.864v6.816h-18.864ZM304.691 52v-4.848l-.624-1.2v-8.928c0-1.44-.448-2.544-1.344-3.312-.864-.8-2.256-1.2-4.176-1.2-1.248 0-2.512.208-3.792.624-1.28.384-2.368.928-3.264 1.632l-3.072-6.192c1.472-.96 3.232-1.696 5.28-2.208a24.393 24.393 0 0 1 6.192-.816c4.224 0 7.488.976 9.792 2.928 2.336 1.92 3.504 4.944 3.504 9.072V52h-8.496Zm-7.68.432c-2.08 0-3.84-.352-5.28-1.056-1.44-.704-2.544-1.664-3.312-2.88-.736-1.216-1.104-2.576-1.104-4.08 0-1.6.4-2.976 1.2-4.128.832-1.184 2.096-2.08 3.792-2.688 1.696-.64 3.888-.96 6.576-.96h6.144v4.752h-4.896c-1.472 0-2.512.24-3.12.72-.576.48-.864 1.12-.864 1.92 0 .8.304 1.44.912 1.92.608.48 1.44.72 2.496.72.992 0 1.888-.24 2.688-.72.832-.512 1.44-1.28 1.824-2.304l1.248 3.36c-.48 1.792-1.424 3.152-2.832 4.08-1.376.896-3.2 1.344-5.472 1.344Zm25.928 9.312c-1.376 0-2.768-.224-4.176-.672-1.376-.416-2.496-.976-3.36-1.68l3.168-6.384c.544.48 1.168.848 1.872 1.104a5.904 5.904 0 0 0 2.16.432c.992 0 1.776-.224 2.352-.672.576-.448 1.072-1.152 1.488-2.112l1.2-3.024.72-.912 8.832-21.84h8.688l-11.232 27.072c-.896 2.24-1.936 3.984-3.12 5.232-1.152 1.28-2.448 2.176-3.888 2.688-1.408.512-2.976.768-4.704.768Zm3.552-8.64-11.472-27.12h9.36l8.448 21.024-6.336 6.096Zm30.784-.672c-2.208 0-4.368-.256-6.48-.768-2.08-.512-3.76-1.152-5.04-1.92l2.736-6.24c1.216.736 2.64 1.328 4.272 1.776 1.632.416 3.232.624 4.8.624 1.536 0 2.592-.16 3.168-.48.608-.32.912-.752.912-1.296 0-.512-.288-.88-.864-1.104-.544-.256-1.28-.448-2.208-.576-.896-.128-1.888-.272-2.976-.432a42.835 42.835 0 0 1-3.312-.624 12.038 12.038 0 0 1-3.024-1.248 6.497 6.497 0 0 1-2.16-2.304c-.544-.96-.816-2.176-.816-3.648 0-1.664.48-3.136 1.44-4.416.992-1.312 2.432-2.336 4.32-3.072 1.888-.768 4.192-1.152 6.912-1.152 1.824 0 3.664.192 5.52.576 1.888.352 3.472.896 4.752 1.632l-2.736 6.192c-1.28-.736-2.56-1.232-3.84-1.488-1.28-.288-2.496-.432-3.648-.432-1.536 0-2.624.176-3.264.528-.608.352-.912.784-.912 1.296s.272.912.816 1.2c.544.256 1.264.464 2.16.624.928.128 1.936.272 3.024.432 1.088.128 2.176.336 3.264.624 1.12.288 2.128.72 3.024 1.296a5.98 5.98 0 0 1 2.208 2.256c.544.928.816 2.128.816 3.6 0 1.6-.496 3.04-1.488 4.32-.96 1.28-2.4 2.304-4.32 3.072-1.888.768-4.24 1.152-7.056 1.152Zm20.634 0c-1.536 0-2.832-.512-3.888-1.536s-1.584-2.32-1.584-3.888c0-1.632.528-2.928 1.584-3.888 1.056-.992 2.352-1.488 3.888-1.488s2.832.496 3.888 1.488c1.056.96 1.584 2.256 1.584 3.888 0 1.568-.528 2.864-1.584 3.888s-2.352 1.536-3.888 1.536Z"/>
</svg>