<svg xmlns="http://www.w3.org/2000/svg" width="32" height="32" viewBox="0 0 32 32">
  <rect width="32" height="32" rx="6" fill="#e2ad37"/>
  <svg x="2" y="3" width="28" height="26" viewBox="85.72 108.08 228.59 183.83">
    <path d="M253.935 108.692 C 252.079 109.354,250.127 111.260,249.590 112.936 C 248.652 115.861,248.256 115.947,242.599 114.443 C 235.368 112.520,228.785 113.546,210.926 119.377 C 205.019 121.306,198.602 123.242,196.667 123.679 C 191.622 124.819,191.358 124.920,190.881 125.876 C 190.000 127.645,193.165 134.834,196.376 138.354 C 200.712 143.108,204.470 144.815,218.333 148.326 C 238.335 153.391,244.636 157.882,254.461 174.078 C 260.443 183.939,264.559 187.834,273.981 192.552 C 277.401 194.265,277.655 194.748,275.648 195.721 C 269.745 198.581,262.892 197.628,258.142 193.286 C 256.318 191.619,255.749 191.642,255.414 193.396 C 254.115 200.204,246.377 206.296,239.029 206.296 C 236.019 206.296,236.003 206.220,238.312 202.859 C 253.398 180.908,239.003 166.730,209.218 174.201 L 204.525 175.379 204.269 172.443 C 203.896 168.166,202.826 164.349,200.913 160.463 C 198.620 155.804,197.908 155.775,198.699 160.370 C 201.181 174.793,196.939 180.553,185.346 178.500 C 179.823 177.522,172.106 173.919,171.651 172.107 C 170.845 168.894,177.162 158.877,182.193 155.391 C 184.955 153.476,184.408 153.203,178.426 153.506 C 140.679 155.420,115.425 176.290,103.716 215.245 C 101.879 221.357,85.485 290.750,85.727 291.389 C 86.014 292.144,116.612 292.055,116.903 291.298 C 117.023 290.983,115.807 288.432,114.083 285.386 C 112.416 282.440,111.106 279.786,111.174 279.488 C 111.241 279.191,121.296 270.585,133.519 260.365 L 155.741 241.784 160.481 231.551 C 163.088 225.923,165.422 221.194,165.666 221.043 C 167.034 220.197,166.955 221.692,165.108 231.598 C 164.090 237.060,163.371 241.643,163.510 241.783 C 163.650 241.923,168.625 242.292,174.567 242.605 L 185.370 243.172 199.779 240.457 C 207.703 238.964,214.309 237.875,214.458 238.038 C 214.606 238.200,216.092 250.000,217.758 264.259 C 219.425 278.519,220.941 290.560,221.127 291.019 L 221.466 291.852 236.064 291.852 C 247.953 291.852,250.697 291.759,250.853 291.354 C 250.958 291.079,249.809 288.755,248.300 286.188 C 246.790 283.621,245.556 281.358,245.556 281.159 C 245.556 280.960,252.999 267.160,262.096 250.491 C 284.279 209.848,287.244 203.597,290.523 190.556 C 296.974 164.896,291.478 145.498,272.352 126.422 L 265.608 119.695 265.814 116.963 C 266.290 110.670,260.228 106.449,253.935 108.692 M231.360 122.570 C 236.457 124.884,234.778 132.222,229.151 132.222 C 223.774 132.222,222.279 124.787,227.207 122.548 C 229.076 121.699,229.447 121.701,231.360 122.570 M186.852 159.707 C 184.036 161.322,185.035 165.575,188.224 165.544 C 191.168 165.515,192.467 162.410,190.399 160.342 C 189.262 159.205,188.092 158.996,186.852 159.707 M285.794 220.463 C 283.303 224.458,263.359 261.754,263.506 262.139 C 263.612 262.415,268.124 269.213,273.532 277.246 L 283.366 291.852 298.732 291.852 C 311.916 291.852,314.127 291.774,314.306 291.307 C 314.435 290.972,313.126 289.008,310.914 286.214 C 308.418 283.063,306.804 280.586,305.656 278.148 C 298.539 263.035,292.238 243.798,288.915 227.037 C 287.394 219.368,287.467 219.630,286.853 219.630 C 286.556 219.630,286.080 220.005,285.794 220.463 M154.588 251.032 C 152.732 252.603,146.357 257.958,140.421 262.932 C 134.486 267.906,129.630 272.156,129.630 272.377 C 129.632 273.504,131.880 291.228,132.058 291.516 C 132.177 291.708,138.819 291.852,147.614 291.852 C 165.731 291.852,164.238 292.629,160.002 285.397 C 158.374 282.617,156.793 279.861,156.489 279.273 C 155.950 278.232,156.093 277.822,161.855 263.835 C 168.704 247.209,168.651 248.696,162.407 248.392 L 157.963 248.175 154.588 251.032" stroke="none" fill="#ffffff" fill-rule="evenodd"/>
  </svg>
</svg>
